<?xml version="1.0" standalone="no"?>
<!DOCTYPE svg PUBLIC "-//W3C//DTD SVG 20010904//EN"
 "http://www.w3.org/TR/2001/REC-SVG-20010904/DTD/svg10.dtd">
<svg version="1.0" xmlns="http://www.w3.org/2000/svg"
 width="300.000000pt" height="300.000000pt" viewBox="0 0 300.000000 300.000000"
 preserveAspectRatio="xMidYMid meet">
<metadata>
Created by potrace 1.10, written by Peter Selinger 2001-2011
</metadata>
<g transform="translate(0.000000,300.000000) scale(0.100000,-0.100000)"
fill="#000000" stroke="none">
<path d="M1202 1528 c-18 -18 -15 -29 13 -58 l26 -27 -41 -44 c-22 -24 -52
-67 -67 -96 -27 -52 -27 -52 -9 -90 45 -95 150 -195 246 -234 21 -8 68 -14
115 -13 65 0 90 5 134 26 l53 26 27 -30 c21 -24 32 -29 49 -24 12 4 22 15 22
24 0 18 -528 552 -546 552 -5 0 -15 -5 -22 -12z m126 -168 c32 -37 33 -41 21
-74 -35 -97 73 -200 174 -167 32 11 36 9 71 -24 l37 -35 -28 -11 c-147 -56
-290 -5 -392 140 l-42 61 32 47 c35 52 79 104 88 102 3 0 21 -18 39 -39z m136
-138 c25 -23 46 -45 46 -47 0 -3 -12 -5 -26 -5 -31 0 -84 50 -84 80 0 28 8 24
64 -28z"/>
<path d="M1420 1532 c-18 -6 -25 -15 -25 -32 0 -24 2 -25 76 -27 120 -3 205
-53 284 -168 l39 -55 -32 -45 c-35 -51 -40 -80 -15 -89 21 -9 53 22 87 85 l27
49 -28 52 c-38 72 -137 169 -205 201 -58 28 -163 42 -208 29z"/>
</g>
</svg>
